<svg width="748" height="537" viewBox="0 0 748 537" fill="none" xmlns="http://www.w3.org/2000/svg">
<g clip-path="url(#clip0_172_4)">
<rect width="536" height="747" transform="matrix(0 -1 1 0 0.5 536.5)" fill="white"/>
<path d="M249.5 83.5C367.5 260.7 205.167 460.833 110.5 538H1L1 189.5L249.5 83.5L180.5 1.5H442.5H747V350.5C661.5 288.167 480.9 131.1 442.5 1.5L249.5 83.5Z" fill="#B6EA5F"/>
<path d="M250 83.5C367.6 259.5 205 461.167 111 538H747.5V349.5C543.5 196.3 457.667 52.3333 443.5 1L250 83.5Z" fill="#225FB1"/>
</g>
<defs>
<clipPath id="clip0_172_4">
<rect width="536" height="747" fill="white" transform="matrix(0 -1 1 0 0.5 536.5)"/>
</clipPath>
</defs>
</svg>
